<svg xmlns="http://www.w3.org/2000/svg" viewBox="0 0 100 100">
  <circle cx="50" cy="50" r="48" fill="#333" stroke="#222" stroke-width="2"/>
  <path d="M 50 2 A 48 48 0 0 1 98 50 L 65 50 A 15 15 0 0 0 35 50 L 2 50 A 48 48 0 0 1 50 2 Z" fill="#FF1C1C"/>
  <path d="M 50 98 A 48 48 0 0 1 2 50 L 35 50 A 15 15 0 0 0 65 50 L 98 50 A 48 48 0 0 1 50 98 Z" fill="#FFFFFF"/>
  <rect x="2" y="47" width="96" height="6" fill="#333"/>
  <circle cx="50" cy="50" r="15" fill="#FFFFFF" stroke="#333" stroke-width="4"/>
  <circle cx="50" cy="50" r="8" fill="#FFFFFF" stroke="#333" stroke-width="3"/>
</svg>
